#N canvas 344 284 450 300 10;
#X msg 105 80 \; pd dsp 1 \;;
#X obj 273 194 dac~;
#X obj 273 166 osc~;
#X obj 272 72 metro 500;
#X msg 270 50 1;
#X obj 273 142 mtof;
#X obj 273 93 random 12;
#X obj 273 117 + 60;
#X obj 98 46 r loadbang;
#X connect 2 0 1 0;
#X connect 2 0 1 1;
#X connect 3 0 6 0;
#X connect 4 0 3 0;
#X connect 5 0 2 0;
#X connect 6 0 7 0;
#X connect 7 0 5 0;
#X connect 8 0 0 0;
#X connect 8 0 4 0;
